<?xml version="1.0" encoding="iso-8859-1"?>
<!-- Generator: Adobe Illustrator 16.0.0, SVG Export Plug-In . SVG Version: 6.00 Build 0)  -->
<!DOCTYPE svg PUBLIC "-//W3C//DTD SVG 1.1//EN" "http://www.w3.org/Graphics/SVG/1.1/DTD/svg11.dtd">
<svg version="1.1" id="Capa_1" xmlns="http://www.w3.org/2000/svg" xmlns:xlink="http://www.w3.org/1999/xlink" x="0px" y="0px"
	 width="405.986px" height="405.986px" viewBox="0 0 405.986 405.986" style="enable-background:new 0 0 405.986 405.986;"
	 xml:space="preserve">
<g>
	<g>
		<path d="M57.029,157.763c7.627-1.617,22.923,7.568,25.11,9.366c4.81,4.181,8.881,8.574,12.816,12.823
			c11.529,12.446,22.416,24.205,46.941,23.343c19.1-0.666,31.118,8.144,45.034,18.342c6.712,4.923,13.656,10.01,21.999,14.549
			c0.045,0.024,0.094,0.052,0.145,0.073c1.918,0.916,5.185,1.563,9.835-0.562c0,0,0,0,0.001,0
			c11.632-5.315,27.532-26.752,23.713-41.157c-1.599-6.037-7.163-12.908-24.585-11.347c-26.237,2.322-43.134-0.274-50.209-7.717
			c-3.162-3.325-4.323-7.627-3.553-13.155c0.73-5.231,4.02-10.745,7.505-16.583c5.264-8.813,11.225-18.803,10.941-31.459
			c-0.153-6.923,2.212-43.391,2.596-46.448c0.157-0.654,0.1-1.366-0.208-2.019c-0.713-1.52-2.521-2.179-4.043-1.483
			c-0.016,0.004-0.032,0.011-0.035,0.016c-10.425,4.915-30.128,22.982-41.898,33.773c-0.607,0.557-1.19,1.091-1.744,1.597
			c-13.055-21.399-31.345-29.679-32.155-30.035c-0.964-0.429-2.081-0.33-2.958,0.266c-0.877,0.594-1.383,1.597-1.34,2.653
			c0.011,0.32,1.22,32.096-0.031,46.934c-0.489,5.841-2.067,8.551-6.023,10.359c-4.055,1.852-10.766,2.799-19.594,3.653
			c-2.784,0.271-5.029,0.808-6.864,1.646c-4.871,2.226-5.984,6.114-6.966,9.546c-0.788,2.752-4.677,5.353-7.298,7.834
			c-1.226,1.163-1.281,3.098-0.124,4.327C54.829,157.738,55.98,158.031,57.029,157.763z"/>
		<path d="M402.341,246.28c-27.2-5.271-53.046-8.97-79.012-11.307c-5.163-0.465-10.392-0.7-15.542-0.7
			c-33.736,0-61.283,9.726-87.926,19.131c-7.507,2.649-18.473,5.3-30.083,8.105c-16.946,4.096-34.469,8.331-42.732,12.998
			c-7.484,4.229-10.303,9.39-8.376,15.345c2.81,8.687,14.416,12.56,37.631,12.56c15.517,0,34.684-1.724,54.975-3.547
			c3.261-0.293,6.576-0.592,9.918-0.887c-27.75,7.472-51.425,11.256-70.485,11.256c-21.89,0-36.169-5.087-40.207-14.324
			c-2.852-6.525-0.151-14.735,7.606-23.117l1.151-1.244l-1.645-0.406c-0.853-0.211-85.483-21.106-101.709-24.666
			c-3.578-0.785-7.212-1.183-10.801-1.183c-12.894,0-23.373,5.123-24.916,12.18c-0.746,3.41,0.105,10.097,14.211,16.575
			l123.708,52.1c4.13,1.526,8.372,3.292,12.863,5.16c13.735,5.716,27.938,11.627,41.135,11.626c5.491,0,10.746-0.571,16.064-1.748
			c9.577-2.118,33.763-9.282,59.367-16.866c24.925-7.384,50.7-15.019,61.012-17.34c8.093-1.82,16.434-2.707,25.499-2.707
			c15.629,0,30.966,2.629,46.61,5.557l5.328,0.997v-62.843L402.341,246.28z"/>
	</g>
</g>
<g>
</g>
<g>
</g>
<g>
</g>
<g>
</g>
<g>
</g>
<g>
</g>
<g>
</g>
<g>
</g>
<g>
</g>
<g>
</g>
<g>
</g>
<g>
</g>
<g>
</g>
<g>
</g>
<g>
</g>
</svg>
