<?xml version="1.0" encoding="iso-8859-1"?>
<!-- Generator: Adobe Illustrator 19.0.0, SVG Export Plug-In . SVG Version: 6.00 Build 0)  -->
<svg version="1.1" id="Capa_1" xmlns="http://www.w3.org/2000/svg" xmlns:xlink="http://www.w3.org/1999/xlink" x="0px" y="0px"
	 viewBox="0 0 60 60" style="enable-background:new 0 0 60 60;" xml:space="preserve">
<g>
	<g>
		<path d="M11,14.5h2c2.8,0,5-2.2,5-5v-3c0-2.8-2.2-5-5-5h-2c-2.8,0-5,2.2-5,5v3C6,12.3,8.2,14.5,11,14.5z M8,6.5c0-1.7,1.3-3,3-3h2
			c1.7,0,3,1.3,3,3v3c0,1.7-1.3,3-3,3h-2c-1.7,0-3-1.3-3-3V6.5z"/>
		<path d="M22,29.5v7h2v-14c0-3.9-3.1-7-7-7H7c-3.9,0-7,3.1-7,7v14h2v-7h3v28c0,0.6,0.4,1,1,1h6h6c0.6,0,1-0.4,1-1v-28H22z M17,23.5
			v33h-4v-18h2v-2H9v2h2v18H7v-33H5v4H2v-5c0-2.8,2.2-5,5-5h4v10h2v-10h4c2.8,0,5,2.2,5,5v5h-3v-4H17z"/>
		<path d="M59,1.5H21c-0.6,0-1,0.4-1,1v9h2v-8h36V39L40,53.2L21.6,38.7l-1.2,1.6l19,15c0.2,0.1,0.4,0.2,0.6,0.2s0.4-0.1,0.6-0.2
			l19-15c0.3-0.2,0.4-0.5,0.4-0.8v-37C60,1.9,59.6,1.5,59,1.5z"/>
		<rect x="25" y="5.5" width="2" height="2"/>
		<rect x="29" y="5.5" width="2" height="2"/>
		<rect x="33" y="5.5" width="2" height="2"/>
		<rect x="37" y="5.5" width="2" height="2"/>
		<rect x="41" y="5.5" width="2" height="2"/>
		<rect x="45" y="5.5" width="2" height="2"/>
		<rect x="49" y="5.5" width="2" height="2"/>
		<rect x="53" y="5.5" width="2" height="2"/>
		<rect x="25" y="9.5" width="2" height="2"/>
		<rect x="29" y="9.5" width="2" height="2"/>
		<rect x="33" y="9.5" width="2" height="2"/>
		<rect x="37" y="9.5" width="2" height="2"/>
		<rect x="41" y="9.5" width="2" height="2"/>
		<rect x="45" y="9.5" width="2" height="2"/>
		<rect x="49" y="9.5" width="2" height="2"/>
		<rect x="53" y="9.5" width="2" height="2"/>
		<path d="M40,42.5c6.1,0,11-4.9,11-11s-4.9-11-11-11s-11,4.9-11,11S33.9,42.5,40,42.5z M40,22.5c5,0,9,4,9,9s-4,9-9,9s-9-4-9-9
			S35,22.5,40,22.5z"/>
		<path d="M38,36.5c0.3,0,0.5-0.1,0.7-0.3l7-7l-1.4-1.4L38,34.1l-2.3-2.3l-1.4,1.4l3,3C37.5,36.4,37.7,36.5,38,36.5z"/>
		<rect x="36" y="15.5" width="8" height="2"/>
	</g>
</g>
<g>
</g>
<g>
</g>
<g>
</g>
<g>
</g>
<g>
</g>
<g>
</g>
<g>
</g>
<g>
</g>
<g>
</g>
<g>
</g>
<g>
</g>
<g>
</g>
<g>
</g>
<g>
</g>
<g>
</g>
</svg>
