<?xml version="1.0" encoding="iso-8859-1"?>
<!-- Generator: Adobe Illustrator 19.0.0, SVG Export Plug-In . SVG Version: 6.00 Build 0)  -->
<svg version="1.1" id="Layer_1" xmlns="http://www.w3.org/2000/svg" xmlns:xlink="http://www.w3.org/1999/xlink" x="0px" y="0px"
	 viewBox="0 0 512 512" style="enable-background:new 0 0 512 512;" xml:space="preserve">
<g>
	<g>
		<path d="M256,0C149.27,0,62.439,86.831,62.439,193.561c0,60.573,28.089,117.034,75.771,153.599L94.253,512h227.055l24.976-124.878
			h53.325l0.001-87.415h49.951V193.561C449.561,86.831,362.73,0,256,0z M412.098,262.244h-49.951l-0.001,87.415h-46.575
			l-24.976,124.878h-147.58l38.205-143.27c-26.372-16.158-81.318-58.408-81.318-137.706c0-86.072,70.025-156.098,156.098-156.098
			s156.098,70.025,156.098,156.098V262.244z"/>
	</g>
</g>
<g>
	<g>
		<path d="M256,74.927c-65.415,0-118.634,53.219-118.634,118.634c0,37.872,30.811,68.683,68.683,68.683
			c31.382,0,57.913-21.153,66.087-49.951h102.499v-18.732C374.634,128.146,321.415,74.927,256,74.927z M237.268,174.829v18.732
			c0,17.214-14.005,31.22-31.22,31.22c-17.214,0-31.219-14.005-31.219-31.22c0-44.758,36.413-81.171,81.171-81.171
			c38.314,0,70.512,26.68,78.989,62.439H237.268z"/>
	</g>
</g>
<g>
</g>
<g>
</g>
<g>
</g>
<g>
</g>
<g>
</g>
<g>
</g>
<g>
</g>
<g>
</g>
<g>
</g>
<g>
</g>
<g>
</g>
<g>
</g>
<g>
</g>
<g>
</g>
<g>
</g>
</svg>
